<?xml version="1.0" encoding="UTF-8" standalone="no"?>
<svg
   xmlns:dc="http://purl.org/dc/elements/1.1/"
   xmlns:cc="http://creativecommons.org/ns#"
   xmlns:rdf="http://www.w3.org/1999/02/22-rdf-syntax-ns#"
   xmlns:svg="http://www.w3.org/2000/svg"
   xmlns="http://www.w3.org/2000/svg"
   version="1.1"
   id="svg2"
   viewBox="0 0 756.9638 373.53613"
   height="105.4202mm"
   width="213.632mm">
  <defs
     id="defs4" />
  <metadata
     id="metadata7">
    <rdf:RDF>
      <cc:Work
         rdf:about="">
        <dc:format>image/svg+xml</dc:format>
        <dc:type
           rdf:resource="http://purl.org/dc/dcmitype/StillImage" />
        <dc:title></dc:title>
      </cc:Work>
    </rdf:RDF>
  </metadata>
  <g
     transform="translate(14.372081,-13.410544)"
     id="layer1">
    <g
       id="g4144"
       transform="matrix(1.25,0,0,-1.25,-160.68051,561.09349)">
      <path
         d="m 145.3932,168.4054 0,27.9052 5.9661,0 0,-27.9052 -5.9661,0 z m 11.8542,0 0,18.6988 5.3156,0 0,-2.9344 c 0.9824,1.2169 2.0301,2.1211 3.1555,2.7 1.1256,0.5794 2.3749,0.8654 3.7474,0.8654 1.451,0 2.6677,-0.2472 3.6499,-0.7353 0.9825,-0.4879 1.7634,-1.2359 2.336,-2.238 0.2795,-0.5204 0.4816,-1.1126 0.5984,-1.7631 0.1236,-0.6571 0.1823,-1.6849 0.1823,-3.0776 l 0,-0.5919 0,-10.9239 -5.4329,0 0,9.2452 c 0,2.2967 -0.2667,3.8192 -0.7999,4.5545 -0.5338,0.735 -1.4508,1.106 -2.7457,1.106 -0.748,0 -1.438,-0.1561 -2.069,-0.4682 -0.6247,-0.3127 -1.1517,-0.7487 -1.5678,-1.321 -0.332,-0.449 -0.5726,-0.9564 -0.7158,-1.529 -0.1497,-0.5726 -0.2214,-1.438 -0.2214,-2.609 l 0,-0.7418 0,-8.2367 -5.4326,0 z m 24.1314,0 0,18.6988 5.3155,0 0,-2.9344 c 0.9825,1.2169 2.0302,2.1211 3.1555,2.7 1.1254,0.5794 2.3746,0.8654 3.7474,0.8654 1.4511,0 2.6677,-0.2472 3.6499,-0.7353 0.9825,-0.4879 1.7635,-1.2359 2.336,-2.238 0.2795,-0.5204 0.4814,-1.1126 0.5984,-1.7631 0.1236,-0.6571 0.1823,-1.6849 0.1823,-3.0776 l 0,-0.5919 0,-10.9239 -5.4329,0 0,9.2452 c 0,2.2967 -0.2667,3.8192 -0.8002,4.5545 -0.5335,0.735 -1.4508,1.106 -2.7456,1.106 -0.7481,0 -1.4378,-0.1561 -2.069,-0.4682 -0.6245,-0.3127 -1.1515,-0.7487 -1.5679,-1.321 -0.3316,-0.449 -0.5723,-0.9564 -0.7154,-1.529 -0.1497,-0.5726 -0.2214,-1.438 -0.2214,-2.609 l 0,-0.7418 0,-8.2367 -5.4326,0 z m 38.2756,9.317 c 0,1.529 -0.4425,2.7453 -1.3337,3.6564 -0.8915,0.9042 -2.082,1.3598 -3.5784,1.3598 -1.503,0 -2.6873,-0.4491 -3.5654,-1.3533 -0.8782,-0.9045 -1.3142,-2.1212 -1.3142,-3.6629 0,-1.5225 0.436,-2.7394 1.3142,-3.6564 0.8781,-0.9176 2.0624,-1.3731 3.5654,-1.3731 1.4833,0 2.6739,0.4555 3.5719,1.3731 0.8915,0.917 1.3402,2.1339 1.3402,3.6564 z m 5.5304,-0.0326 c 0,-2.8693 -0.9825,-5.2637 -2.9474,-7.1697 -1.9585,-1.9063 -4.4502,-2.8562 -7.4625,-2.8562 -3.032,0 -5.5369,0.9499 -7.5082,2.8562 -1.9715,1.906 -2.9539,4.3004 -2.9539,7.1697 0,2.8562 0.989,5.2503 2.9732,7.1699 1.9846,1.9191 4.483,2.8755 7.4889,2.8755 3.0254,0 5.517,-0.9499 7.4755,-2.8432 1.9582,-1.8932 2.9344,-4.2942 2.9344,-7.2022 z m 8.7049,-9.2844 -7.6056,18.6988 6.2719,0 3.1621,-9.7203 c 0.254,-0.7875 0.4617,-1.5222 0.6117,-2.1926 0.1494,-0.6766 0.2599,-1.3337 0.3254,-1.9842 0.1494,0.9822 0.3056,1.8153 0.4553,2.4984 0.1561,0.6894 0.3319,1.3076 0.5334,1.8669 l 3.1882,9.5318 6.1744,0 -7.6839,-18.6988 -5.4329,0 z m 29.2454,9.3819 c 0,1.6787 -0.423,3.0058 -1.2688,3.9818 -0.8391,0.9822 -1.9843,1.4703 -3.4158,1.4703 -1.4768,0 -2.6351,-0.4881 -3.4809,-1.4573 -0.8456,-0.9759 -1.2685,-2.3031 -1.2685,-3.9948 0,-1.6917 0.4164,-3.0059 1.2492,-3.9493 0.8328,-0.9433 1.9843,-1.4119 3.4614,-1.4119 1.4961,0 2.6609,0.4686 3.4874,1.4119 0.8261,0.9434 1.236,2.2576 1.236,3.9493 z m 4.9578,-9.3819 -5.2634,0 0.0779,2.6873 c -0.7353,-1.1843 -1.6203,-2.0497 -2.6611,-2.6028 -1.0344,-0.5527 -2.2967,-0.826 -3.7803,-0.826 -2.4786,0 -4.4759,0.9238 -5.9984,2.7649 -1.516,1.8414 -2.2771,4.2747 -2.2771,7.3001 0,3.149 0.7481,5.6083 2.238,7.3647 1.4967,1.7634 3.5719,2.6416 6.2263,2.6416 1.3858,0 2.6027,-0.3121 3.6501,-0.9303 1.0472,-0.6245 1.9324,-1.5549 2.6414,-2.7845 l 0,3.0838 5.1466,0 0,-18.6988 z m 5.771,0 0,14.4502 -2.609,0 0,4.2486 2.609,0 0,6.2132 5.4326,0 0,-6.2132 2.609,0 0,-4.2486 -2.609,0 0,-14.4502 -5.4326,0 z m 11.1186,26.3761 c 0,0.8652 0.3127,1.6135 0.9369,2.2315 0.6182,0.6244 1.3666,0.9371 2.2317,0.9371 0.8716,0 1.6265,-0.3058 2.2575,-0.9241 0.6313,-0.6182 0.9437,-1.3663 0.9437,-2.2445 0,-0.8719 -0.3124,-1.6265 -0.9437,-2.2447 -0.631,-0.6248 -1.3859,-0.9369 -2.2575,-0.9369 -0.8651,0 -1.6135,0.3189 -2.2317,0.9564 -0.6242,0.631 -0.9369,1.3794 -0.9369,2.2252 z m 0.4816,-26.3761 0,18.6988 5.4131,0 0,-18.6988 -5.4131,0 z m 15.5364,0 -7.6056,18.6988 6.2719,0 3.1621,-9.7203 c 0.254,-0.7875 0.4617,-1.5222 0.6117,-2.1926 0.1494,-0.6766 0.2599,-1.3337 0.3251,-1.9842 0.1497,0.9822 0.3059,1.8153 0.4553,2.4984 0.1562,0.6894 0.3322,1.3076 0.5337,1.8669 l 3.1882,9.5318 6.1744,0 -7.6839,-18.6988 -5.4329,0 z m 28.3473,11.2882 c -0.1496,1.1775 -0.5788,2.069 -1.288,2.6739 -0.7027,0.6052 -1.6657,0.9045 -2.8888,0.9045 -1.2166,0 -2.1926,-0.2993 -2.9211,-0.9045 -0.7353,-0.6049 -1.1974,-1.4964 -1.4054,-2.6739 l 8.5033,0 z m 5.3742,-3.2791 -14.0468,0 c 0.2149,-1.3468 0.7028,-2.3554 1.4704,-3.0189 0.7614,-0.6702 1.7957,-1.0021 3.1036,-1.0021 0.9888,0 1.8474,0.1888 2.5634,0.5726 0.7155,0.3776 1.3207,0.9564 1.8023,1.7308 l 4.3852,-2.186 c -1.0154,-1.6461 -2.2513,-2.8627 -3.6958,-3.6567 -1.4508,-0.7937 -3.1749,-1.1903 -5.1656,-1.1903 -3.0254,0 -5.4199,0.9043 -7.1895,2.7062 -1.7632,1.8023 -2.6479,4.229 -2.6479,7.2805 0,2.9345 0.9238,5.3482 2.7715,7.2414 1.8476,1.8933 4.2159,2.8432 7.1047,2.8432 2.9733,0 5.3221,-0.8847 7.0526,-2.6612 1.7243,-1.7694 2.5895,-4.1896 2.5895,-7.2476 0,-0.1692 -0.007,-0.3447 -0.0196,-0.5465 -0.013,-0.1953 -0.0388,-0.4813 -0.078,-0.8654 z m 16.5779,-8.0091 0,27.9052 16.4279,0 0,-5.0296 -10.4621,0 0,-5.7449 10.4621,0 0,-5.0684 -10.4621,0 0,-6.9939 10.4621,0 0,-5.0684 -16.4279,0 z m 22.0167,0 0,29.5447 5.413,0 0,-29.5447 -5.413,0 z m 23.8124,11.2882 c -0.1499,1.1775 -0.5791,2.069 -1.2883,2.6739 -0.7027,0.6052 -1.6654,0.9045 -2.8885,0.9045 -1.2169,0 -2.1929,-0.2993 -2.9214,-0.9045 -0.735,-0.6049 -1.1971,-1.4964 -1.4054,-2.6739 l 8.5036,0 z m 5.374,-3.2791 -14.0468,0 c 0.2148,-1.3468 0.7029,-2.3554 1.4706,-3.0189 0.7611,-0.6702 1.7957,-1.0021 3.1033,-1.0021 0.989,0 1.8477,0.1888 2.5634,0.5726 0.7158,0.3776 1.3207,0.9564 1.8023,1.7308 l 4.3852,-2.186 c -1.0154,-1.6461 -2.2513,-2.8627 -3.6956,-3.6567 -1.451,-0.7937 -3.175,-1.1903 -5.1658,-1.1903 -3.0254,0 -5.4196,0.9043 -7.1895,2.7062 -1.7632,1.8023 -2.6479,4.229 -2.6479,7.2805 0,2.9345 0.9238,5.3482 2.7715,7.2414 1.8479,1.8933 4.2159,2.8432 7.1047,2.8432 2.9733,0 5.3221,-0.8847 7.0529,-2.6612 1.724,-1.7694 2.5895,-4.1896 2.5895,-7.2476 0,-0.1692 -0.007,-0.3447 -0.0196,-0.5465 -0.0133,-0.1953 -0.0391,-0.4813 -0.0782,-0.8654 z m 17.8985,-7.456 c -0.735,-0.4425 -1.5092,-0.7679 -2.3224,-0.9825 -0.8136,-0.2081 -1.7048,-0.3121 -2.6742,-0.3121 -2.9475,0 -5.3482,0.9366 -7.2026,2.8106 -1.8541,1.8739 -2.7845,4.3134 -2.7845,7.3128 0,2.9344 0.9372,5.3288 2.8041,7.1762 1.8674,1.8479 4.2876,2.7717 7.2609,2.7717 0.989,0 1.8802,-0.0978 2.6674,-0.286 0.7875,-0.1888 1.5423,-0.4882 2.2513,-0.8981 l -0.0391,-5.4521 c -0.5726,0.5853 -1.2297,1.0409 -1.9778,1.3598 -0.7548,0.3186 -1.5485,0.4751 -2.3879,0.4751 -1.5225,0 -2.7388,-0.4686 -3.6564,-1.3989 -0.917,-0.9372 -1.3725,-2.1731 -1.3725,-3.7086 0,-1.5744 0.4683,-2.8301 1.3986,-3.7673 0.9368,-0.9303 2.1991,-1.3986 3.7865,-1.3986 0.8785,0 1.6529,0.1562 2.336,0.4751 0.6767,0.3186 1.3009,0.813 1.8735,1.4834 l 0.0391,-5.6605 z m 4.7628,-0.5531 0,14.4502 -2.6093,0 0,4.2486 2.6093,0 0,6.2132 5.4326,0 0,-6.2132 2.609,0 0,-4.2486 -2.609,0 0,-14.4502 -5.4326,0 z m 16.6359,13.8972 c 0.5465,1.8218 1.3272,3.1748 2.3488,4.0793 1.0279,0.9046 2.2901,1.3533 3.8058,1.3533 0.3387,0 0.9043,-0.0649 1.6917,-0.1888 0.1562,-0.0258 0.2668,-0.0456 0.345,-0.0584 l -0.8198,-5.836 c -0.4034,0.169 -0.8132,0.2929 -1.2297,0.3773 -0.4098,0.0848 -0.8458,0.1236 -1.3013,0.1236 -1.6526,0 -2.8432,-0.4226 -3.5655,-1.2685 -0.7219,-0.8458 -1.0865,-2.2578 -1.0865,-4.2423 l 0,-8.2367 -5.4326,0 0,18.6988 5.3547,0 -0.1106,-4.8016 z m 10.3771,12.4789 c 0,0.8652 0.3127,1.6135 0.9368,2.2315 0.6183,0.6244 1.3666,0.9371 2.2318,0.9371 0.8719,0 1.6265,-0.3058 2.2578,-0.9241 0.6309,-0.6182 0.9433,-1.3663 0.9433,-2.2445 0,-0.8719 -0.3124,-1.6265 -0.9433,-2.2447 -0.6313,-0.6248 -1.3859,-0.9369 -2.2578,-0.9369 -0.8652,0 -1.6135,0.3189 -2.2318,0.9564 -0.6241,0.631 -0.9368,1.3794 -0.9368,2.2252 z m 0.4816,-26.3761 0,18.6988 5.413,0 0,-18.6988 -5.413,0 z m 24.7105,0.5531 c -0.7354,-0.4425 -1.5095,-0.7679 -2.3228,-0.9825 -0.8132,-0.2081 -1.7047,-0.3121 -2.6739,-0.3121 -2.9477,0 -5.3484,0.9366 -7.2028,2.8106 -1.8542,1.8739 -2.7845,4.3134 -2.7845,7.3128 0,2.9344 0.9372,5.3288 2.8043,7.1762 1.8675,1.8479 4.2874,2.7717 7.2607,2.7717 0.9893,0 1.8802,-0.0978 2.6677,-0.286 0.7872,-0.1888 1.542,-0.4882 2.2513,-0.8981 L 477.33,181.099 c -0.5726,0.5853 -1.2297,1.0409 -1.9778,1.3598 -0.7548,0.3186 -1.5485,0.4751 -2.3879,0.4751 -1.5225,0 -2.7388,-0.4686 -3.6564,-1.3989 -0.917,-0.9372 -1.3725,-2.1731 -1.3725,-3.7086 0,-1.5744 0.4683,-2.8301 1.3986,-3.7673 0.9368,-0.9303 2.1991,-1.3986 3.7868,-1.3986 0.8782,0 1.6526,0.1562 2.3357,0.4751 0.6767,0.3186 1.3009,0.813 1.8735,1.4834 l 0.0394,-5.6605 z m 17.8789,8.8288 c 0,1.6787 -0.4232,3.0058 -1.2691,3.9818 -0.839,0.9822 -1.9839,1.4703 -3.4154,1.4703 -1.4769,0 -2.6351,-0.4881 -3.481,-1.4573 -0.8458,-0.9759 -1.2685,-2.3031 -1.2685,-3.9948 0,-1.6917 0.4162,-3.0059 1.2493,-3.9493 0.8325,-0.9433 1.9839,-1.4119 3.4613,-1.4119 1.4962,0 2.6606,0.4686 3.4872,1.4119 0.8263,0.9434 1.2362,2.2576 1.2362,3.9493 z m 4.9575,-9.3819 -5.2633,0 0.0782,2.6873 c -0.7353,-1.1843 -1.6203,-2.0497 -2.6612,-2.6028 -1.0346,-0.5527 -2.2966,-0.826 -3.7803,-0.826 -2.4789,0 -4.4761,0.9238 -5.9986,2.7649 -1.5157,1.8414 -2.2771,4.2747 -2.2771,7.3001 0,3.149 0.7481,5.6083 2.2382,7.3647 1.4964,1.7634 3.572,2.6416 6.2263,2.6416 1.3859,0 2.6025,-0.3121 3.6499,-0.9303 1.0474,-0.6245 1.9324,-1.5549 2.6416,-2.7845 l 0,3.0838 5.1463,0 0,-18.6988 z m 5.3093,0 0,29.5447 5.4128,0 0,-29.5447 -5.4128,0 z m 21.6003,3.5524 3.3182,3.7477 c 0.4227,-1.0281 1.0931,-1.8351 2.0234,-2.4267 0.9238,-0.5922 1.9647,-0.8853 3.1227,-0.8853 1.3991,0 2.5049,0.3319 3.3182,0.9893 0.8132,0.6636 1.2169,1.5483 1.2169,2.6671 0,1.321 -1.3535,2.6351 -4.0535,3.943 -0.8782,0.4229 -1.5679,0.7676 -2.0818,1.0344 -2.4401,1.269 -4.1315,2.5115 -5.0684,3.7219 -0.9436,1.2163 -1.4119,2.6606 -1.4119,4.3395 0,2.3029 0.9108,4.1896 2.7326,5.6733 1.8281,1.4768 4.1899,2.2184 7.0982,2.2184 1.6918,0 3.1491,-0.2928 4.3784,-0.8847 1.2235,-0.5922 2.31,-1.516 3.2468,-2.7783 l -3.5263,-3.3701 c -0.4164,0.8133 -0.9759,1.4182 -1.6656,1.8219 -0.6894,0.3968 -1.529,0.5984 -2.505,0.5984 -1.1837,0 -2.1339,-0.2929 -2.8562,-0.8847 -0.7219,-0.5922 -1.0865,-1.3598 -1.0865,-2.2969 0,-1.4769 1.438,-2.8234 4.307,-4.0403 0.5661,-0.2471 1.0085,-0.4359 1.3147,-0.5726 2.3613,-1.08 4.1114,-2.3028 5.25,-3.6626 1.1387,-1.3601 1.7048,-2.9084 1.7048,-4.6522 0,-2.6156 -0.8912,-4.7038 -2.6807,-6.2589 -1.7825,-1.5551 -4.1834,-2.3355 -7.1958,-2.3355 -2.1339,0 -3.9622,0.3705 -5.491,1.1058 -1.5225,0.7353 -2.6611,1.8023 -3.4092,3.1881 z m 37.3192,5.7646 c 0,1.529 -0.4422,2.7453 -1.3337,3.6564 -0.8915,0.9042 -2.0817,1.3598 -3.5784,1.3598 -1.5027,0 -2.687,-0.4491 -3.5654,-1.3533 -0.8782,-0.9045 -1.3142,-2.1212 -1.3142,-3.6629 0,-1.5225 0.436,-2.7394 1.3142,-3.6564 0.8784,-0.9176 2.0627,-1.3731 3.5654,-1.3731 1.4834,0 2.6742,0.4555 3.5719,1.3731 0.8915,0.917 1.3402,2.1339 1.3402,3.6564 z m 5.5304,-0.0326 c 0,-2.8693 -0.9824,-5.2637 -2.9471,-7.1697 -1.9585,-1.9063 -4.4504,-2.8562 -7.4628,-2.8562 -3.032,0 -5.5366,0.9499 -7.5079,2.8562 -1.9717,1.906 -2.9542,4.3004 -2.9542,7.1697 0,2.8562 0.989,5.2503 2.9735,7.1699 1.9843,1.9191 4.4827,2.8755 7.4886,2.8755 3.0254,0 5.5171,-0.9499 7.4755,-2.8432 1.9585,-1.8932 2.9344,-4.2942 2.9344,-7.2022 z m 4.3005,-9.2844 0,29.5447 5.413,0 0,-29.5447 -5.413,0 z m 16.2456,18.6988 0,-9.8308 c 0,-1.6526 0.3189,-2.837 0.9632,-3.5459 0.6438,-0.7092 1.6852,-1.067 3.136,-1.067 1.4374,0 2.4789,0.3578 3.1294,1.0732 0.6441,0.7226 0.9692,1.9001 0.9692,3.5397 l 0,9.8308 5.4326,0 0,-9.8308 c 0,-3.2919 -0.7676,-5.7189 -2.3094,-7.274 -1.5358,-1.5551 -3.9169,-2.3355 -7.1438,-2.3355 -3.2922,0 -5.7124,0.7741 -7.2545,2.3224 -1.5417,1.5551 -2.3159,3.9819 -2.3159,7.2871 l 0,9.8308 5.3932,0 z m 19.5188,-18.6988 0,14.4502 -2.609,0 0,4.2486 2.609,0 0,6.2132 5.4326,0 0,-6.2132 2.609,0 0,-4.2486 -2.609,0 0,-14.4502 -5.4326,0 z m 11.1189,26.3761 c 0,0.8652 0.3124,1.6135 0.9366,2.2315 0.6182,0.6244 1.3666,0.9371 2.2317,0.9371 0.8719,0 1.6268,-0.3058 2.2578,-0.9241 0.631,-0.6182 0.9434,-1.3663 0.9434,-2.2445 0,-0.8719 -0.3124,-1.6265 -0.9434,-2.2447 -0.631,-0.6248 -1.3859,-0.9369 -2.2578,-0.9369 -0.8651,0 -1.6135,0.3189 -2.2317,0.9564 -0.6242,0.631 -0.9366,1.3794 -0.9366,2.2252 z m 0.4816,-26.3761 0,18.6988 5.4128,0 0,-18.6988 -5.4128,0 z m 25.0679,9.317 c 0,1.529 -0.4425,2.7453 -1.3337,3.6564 -0.8915,0.9042 -2.082,1.3598 -3.5784,1.3598 -1.503,0 -2.6873,-0.4491 -3.5654,-1.3533 -0.8782,-0.9045 -1.3142,-2.1212 -1.3142,-3.6629 0,-1.5225 0.436,-2.7394 1.3142,-3.6564 0.8781,-0.9176 2.0624,-1.3731 3.5654,-1.3731 1.4833,0 2.6739,0.4555 3.5719,1.3731 0.8915,0.917 1.3402,2.1339 1.3402,3.6564 z m 5.5304,-0.0326 c 0,-2.8693 -0.9825,-5.2637 -2.9474,-7.1697 -1.9585,-1.9063 -4.4502,-2.8562 -7.4625,-2.8562 -3.032,0 -5.5369,0.9499 -7.5082,2.8562 -1.9715,1.906 -2.9539,4.3004 -2.9539,7.1697 0,2.8562 0.989,5.2503 2.9732,7.1699 1.9846,1.9191 4.483,2.8755 7.4889,2.8755 3.0254,0 5.517,-0.9499 7.4755,-2.8432 1.9582,-1.8932 2.9344,-4.2942 2.9344,-7.2022 z m 4.0921,-9.2844 0,18.6988 5.3155,0 0,-2.9344 c 0.9825,1.2169 2.0302,2.1211 3.1559,2.7 1.1253,0.5794 2.3745,0.8654 3.7474,0.8654 1.451,0 2.6674,-0.2472 3.6498,-0.7353 0.9825,-0.4879 1.7632,-1.2359 2.3358,-2.238 0.2798,-0.5204 0.4816,-1.1126 0.5987,-1.7631 0.1233,-0.6571 0.1822,-1.6849 0.1822,-3.0776 l 0,-0.5919 0,-10.9239 -5.4328,0 0,9.2452 c 0,2.2967 -0.2668,3.8192 -0.8003,4.5545 -0.5334,0.735 -1.4507,1.106 -2.7456,1.106 -0.7481,0 -1.438,-0.1561 -2.069,-0.4682 -0.6248,-0.3127 -1.1514,-0.7487 -1.5678,-1.321 -0.3317,-0.449 -0.5726,-0.9564 -0.7155,-1.529 -0.15,-0.5726 -0.2217,-1.438 -0.2217,-2.609 l 0,-0.7418 0,-8.2367 -5.4326,0 z m 22.3033,3.2792 4.1768,2.1534 c 0.1367,-0.7219 0.514,-1.2945 1.1257,-1.7109 0.6052,-0.423 1.3595,-0.6313 2.2643,-0.6313 0.8909,0 1.5874,0.1627 2.0945,0.4878 0.5077,0.3189 0.7614,0.7679 0.7614,1.3402 0,0.9049 -0.9042,1.6592 -2.7065,2.2712 -0.5593,0.1885 -1.0021,0.3444 -1.3337,0.4748 -2.1989,0.826 -3.7151,1.6591 -4.561,2.4919 -0.8455,0.8391 -1.2687,1.8734 -1.2687,3.1099 0,1.8283 0.716,3.3114 2.1534,4.4371 1.438,1.1321 3.3316,1.6982 5.6804,1.6982 1.6784,0 3.1294,-0.3385 4.3523,-1.0086 1.2297,-0.6701 2.1212,-1.6265 2.6807,-2.8562 l -3.9818,-1.9845 c -0.2146,0.6965 -0.5922,1.2297 -1.1256,1.5942 -0.5335,0.358 -1.2036,0.5397 -2.0039,0.5397 -0.8005,0 -1.4442,-0.1624 -1.9457,-0.4943 -0.4943,-0.3317 -0.7415,-0.7611 -0.7415,-1.2946 0,-0.9303 1.2297,-1.7958 3.6958,-2.5957 0.2928,-0.085 0.5139,-0.1565 0.6698,-0.2083 2.043,-0.6704 3.5005,-1.4576 4.366,-2.3554 0.8651,-0.8912 1.2945,-2.0364 1.2945,-3.4157 0,-1.8607 -0.7157,-3.3313 -2.1534,-4.4243 -1.4381,-1.0928 -3.377,-1.6393 -5.8102,-1.6393 -1.9324,0 -3.585,0.3577 -4.9513,1.0732 -1.3663,0.7226 -2.2768,1.7048 -2.7323,2.9475"
         style="fill:#888890;fill-opacity:1;fill-rule:nonzero;stroke:none"
         id="path4224" />
      <path
         d="m 235.2546,395.4796 c -6.4596,0 -12.5963,-1.3816 -18.1307,-3.8654 -4.7712,3.9983 -9.7134,6.8741 -14.6236,8.1916 9.3529,6.3096 20.6237,9.9941 32.7543,9.9941 16.1924,0 30.8537,-6.565 41.4655,-17.1762 10.6121,-10.6121 17.1768,-25.2732 17.1768,-41.4658 0,-0.8413 -0.0181,-1.679 -0.0536,-2.5115 -5.4411,-3.6102 -10.4624,-5.8842 -15.2535,-6.8284 0.646,3.0113 0.9871,6.1362 0.9871,9.3399 0,12.2394 -4.9618,23.3218 -12.9813,31.3412 -8.0201,8.0193 -19.1018,12.9805 -31.341,12.9805 z m -43.3179,-34.8959 c -0.6574,-3.0379 -1.004,-6.1912 -1.004,-9.4258 0,-12.2394 4.9614,-23.3215 12.9807,-31.3416 8.0195,-8.0189 19.1009,-12.9806 31.3412,-12.9806 6.5469,0 12.7622,1.421 18.3555,3.9687 4.6993,-3.9934 9.576,-6.9378 14.4122,-8.2853 -9.3563,-6.3159 -20.6312,-10.0038 -32.7677,-10.0038 -16.1926,0 -30.854,6.565 -41.4657,17.1768 -10.6115,10.6121 -17.1763,25.2732 -17.1763,41.4658 0,0.8957 0.0213,1.7861 0.0607,2.6722 5.4138,3.6233 10.4357,5.8782 15.2634,6.7536"
         style="fill:#f8da0e;fill-opacity:1;fill-rule:nonzero;stroke:none"
         id="path4226" />
      <path
         d="m 235.2552,351.1573 c 8.9878,-17.8787 26.1388,-39.9078 38.4607,-39.9078 12.3217,0 28.5149,19.4885 38.6218,39.9078 -28.8797,-25.9211 -48.9977,-25.6822 -77.0825,0"
         style="fill:#005fa9;fill-opacity:1;fill-rule:evenodd;stroke:none"
         id="path4228" />
      <path
         d="m 235.2552,351.1573 c -28.8791,25.9212 -48.9977,25.6822 -77.0825,0 8.9878,17.8787 26.1388,39.9084 38.4604,39.9084 12.3225,0 28.5157,-19.4896 38.6221,-39.9084"
         style="fill:#db312a;fill-opacity:1;fill-rule:evenodd;stroke:none"
         id="path4230" />
      <path
         d="m 145.3932,218.0231 0,79.4364 11.7136,0 0,-79.4364 -11.7136,0 z m 0,82.741 0,10.0973 11.7136,0 0,-10.0973 -11.7136,0 z m 26.3758,-82.741 0,58.4456 10.6155,0 0,-5.8164 c 1.4233,2.1356 3.1723,3.742 5.2058,4.8197 2.054,1.078 4.4334,1.6067 7.1175,1.6067 4.2908,0 7.4838,-1.1999 9.5582,-3.5793 2.0942,-2.3791 3.1317,-5.999 3.1317,-10.8797 l 0,-44.5966 -10.7376,0 0,39.289 c 0,3.9657 -0.5083,6.6702 -1.5455,8.0938 -1.0372,1.4437 -2.8267,2.1555 -5.3892,2.1555 -2.3791,0 -4.1891,-0.7524 -5.389,-2.2369 -1.2203,-1.4845 -1.83,-3.7012 -1.83,-6.6498 l 0,-40.6516 -10.7374,0 z m 57.1031,29.3244 c 0,-7.5243 0.6103,-12.7913 1.8508,-15.8012 1.22,-2.9894 3.2941,-4.494 6.2025,-4.494 2.908,0 4.9617,1.5046 6.2022,4.494 1.2203,3.0099 1.8507,8.2769 1.8507,15.8012 0,7.4633 -0.6304,12.71 -1.8507,15.7198 -1.2405,2.9894 -3.2942,4.4941 -6.2022,4.4941 -2.9084,0 -4.9825,-1.5047 -6.2025,-4.4941 -1.2405,-3.0098 -1.8508,-8.2565 -1.8508,-15.7198 z m 26.4776,-30.7072 c 0,-8.0736 -1.4845,-13.7675 -4.4334,-17.1229 -2.969,-3.3557 -7.9106,-5.0434 -14.8249,-5.0434 -5.694,0 -10.0457,1.444 -13.0555,4.3316 -3.0303,2.8673 -4.5352,6.9956 -4.5352,12.3642 l 0,1.8507 10.2495,0 c 0.1219,-3.1722 0.7728,-5.5312 1.9928,-7.077 1.1999,-1.5454 3.0299,-2.3181 5.4907,-2.3181 2.9693,0 5.1046,0.9351 6.4261,2.7858 1.3017,1.8709 1.9525,4.9213 1.9525,9.1511 l 0,8.2766 c -1.4643,-2.2977 -3.1521,-4.0062 -5.0434,-5.1244 -1.8909,-1.1186 -4.0671,-1.6677 -6.5276,-1.6677 -5.1656,0 -8.9682,2.4608 -11.3882,7.3619 -2.4202,4.9209 -3.6405,12.547 -3.6405,22.9388 0,10.3306 1.2203,17.9365 3.6405,22.8577 2.42,4.9008 6.2226,7.3616 11.3882,7.3616 2.5013,0 4.6973,-0.5287 6.5886,-1.6067 1.8913,-1.0777 3.5589,-2.7655 4.9824,-5.0638 l 0,5.5724 10.7374,0 0,-59.8284 z m 19.9089,37.0114 16.3502,0 0,1.4843 c 0,4.8197 -0.6304,8.2769 -1.912,10.4326 -1.2605,2.1351 -3.2941,3.2131 -6.1211,3.2131 -2.7247,0 -4.7991,-1.2813 -6.2022,-3.8435 -1.4032,-2.5625 -2.1149,-6.3247 -2.1149,-11.2865 z m 26.1317,-16.1061 0,-0.7727 c 0,-6.1617 -1.5457,-11.0019 -4.6568,-14.5401 -3.0911,-3.5388 -7.3213,-5.3079 -12.6697,-5.3079 -6.548,0 -11.3471,2.4404 -14.3773,7.3004 -3.0302,4.8807 -4.5553,12.6493 -4.5553,23.3458 0,10.0662 1.5251,17.5706 4.5553,22.5324 3.0302,4.9821 7.6258,7.4633 13.788,7.4633 6.548,0 11.266,-2.2572 14.1537,-6.772 2.908,-4.5144 4.352,-11.8964 4.352,-22.1663 l 0,-3.3959 -26.7216,0 0,-1.7289 c 0,-6.1004 0.6916,-10.5338 2.0743,-13.2996 1.4032,-2.7453 3.5992,-4.1281 6.609,-4.1281 2.4202,0 4.2503,0.9559 5.4907,2.8471 1.2609,1.9115 1.9321,4.7586 2.054,8.5612 l 9.9037,0.0613 z m 11.0625,-19.5225 0,92.3658 10.7376,0 0,-92.3658 -10.7376,0 z m 31.3784,35.6286 16.3502,0 0,1.4843 c 0,4.8197 -0.6304,8.2769 -1.912,10.4326 -1.2605,2.1351 -3.2941,3.2131 -6.1211,3.2131 -2.7246,0 -4.799,-1.2813 -6.2022,-3.8435 -1.4031,-2.5625 -2.1149,-6.3247 -2.1149,-11.2865 z m 26.1317,-16.1061 0,-0.7727 c 0,-6.1617 -1.5457,-11.0019 -4.6567,-14.5401 -3.0912,-3.5388 -7.3213,-5.3079 -12.6698,-5.3079 -6.548,0 -11.347,2.4404 -14.3773,7.3004 -3.0302,4.8807 -4.5553,12.6493 -4.5553,23.3458 0,10.0662 1.5251,17.5706 4.5553,22.5324 3.0303,4.9821 7.6258,7.4633 13.788,7.4633 6.548,0 11.266,-2.2572 14.1537,-6.772 2.9081,-4.5144 4.352,-11.8964 4.352,-22.1663 l 0,-3.3959 -26.7216,0 0,-1.7289 c 0,-6.1004 0.6914,-10.5338 2.0741,-13.2996 1.4034,-2.7453 3.5994,-4.1281 6.6093,-4.1281 2.4202,0 4.2502,0.9559 5.4907,2.8471 1.2608,1.9115 1.9321,4.7586 2.0539,8.5612 l 9.9037,0.0613 z m 33.7573,-18.5871 c -1.5044,-0.7319 -2.9688,-1.2608 -4.3923,-1.6271 -1.4437,-0.3452 -2.9081,-0.5286 -4.413,-0.5286 -5.8567,0 -10.1883,2.4607 -12.9946,7.3618 -2.7862,4.9213 -4.189,12.5674 -4.189,23.0001 0,9.9643 1.4028,17.5294 4.2298,22.6743 2.8063,5.1449 6.9344,7.7278 12.3639,7.7278 1.6679,0 3.2743,-0.1831 4.8198,-0.5695 1.5454,-0.3863 3.071,-0.9555 4.5754,-1.7081 l 0,-10.2901 c -0.9961,0.9355 -1.9724,1.6064 -2.9282,2.0336 -0.9352,0.4272 -1.9318,0.6508 -2.969,0.6508 -3.0909,0 -5.4094,-1.7489 -6.9344,-5.2466 -1.5254,-3.498 -2.2981,-8.7446 -2.2981,-15.7808 0,-6.4669 0.7526,-11.2864 2.2368,-14.4793 1.4845,-3.1723 3.7418,-4.7586 6.7516,-4.7586 1.078,0 2.1149,0.2036 3.1317,0.6305 1.0171,0.4067 2.0135,1.0573 3.0096,1.9318 l 0,-11.022 z m 8.8871,-0.9354 0,50.5145 -5.8566,0 0,7.9311 5.8566,0 0,15.8621 10.7371,0 0,-15.8621 8.0532,0 0,-7.9311 -8.0532,0 0,-50.5145 -10.7371,0 z m 25.8874,17.2247 0,41.2209 10.7374,0 0,-41.8108 c 0,-2.7048 0.5899,-4.7384 1.7898,-6.1211 1.1996,-1.4032 2.9687,-2.0948 5.3277,-2.0948 2.2981,0 4.0473,0.6916 5.2469,2.0948 1.1999,1.3827 1.7895,3.4163 1.7895,6.1211 l 0,41.8108 10.8593,0 0,-41.2209 c 0,-6.4468 -1.4233,-11.1036 -4.2503,-13.9912 -2.8471,-2.8877 -7.4021,-4.3317 -13.6859,-4.3317 -6.2836,0 -10.8187,1.444 -13.6046,4.3317 -2.8063,2.8876 -4.2098,7.5444 -4.2098,13.9912 z m 45.6339,-4.9014 c 1.5049,-1.3014 3.0098,-2.2773 4.4943,-2.9282 1.4845,-0.6505 3.0095,-0.9762 4.555,-0.9762 2.2578,0 4.0878,0.6709 5.5318,2.0336 1.4233,1.3422 2.1351,3.0707 2.1351,5.1655 0,2.5013 -1.9523,5.6129 -5.8771,9.3544 -0.5083,0.5082 -0.9153,0.8745 -1.1795,1.1185 -3.8231,3.6199 -6.3856,6.6294 -7.687,9.0088 -1.3218,2.3797 -1.9726,5.0026 -1.9726,7.8701 0,4.9215 1.5049,8.9479 4.5348,12.039 3.0099,3.1111 6.9347,4.6568 11.734,4.6568 1.5863,0 3.1519,-0.2033 4.6775,-0.5896 1.525,-0.4068 3.0501,-0.9967 4.555,-1.8099 l 0,-11.022 c -1.1591,1.3419 -2.4199,2.3182 -3.7823,2.9486 -1.3626,0.6304 -2.9489,0.9559 -4.7384,0.9559 -1.993,0 -3.6198,-0.6305 -4.9215,-1.912 -1.281,-1.2606 -1.9318,-2.867 -1.9318,-4.8195 0,-2.5826 1.8913,-5.5925 5.6534,-9.0289 0.7523,-0.6916 1.3017,-1.1999 1.6472,-1.5661 3.5385,-3.2536 5.999,-6.2022 7.3616,-8.8257 1.3626,-2.6232 2.054,-5.5315 2.054,-8.7647 0,-4.9621 -1.5046,-8.9277 -4.5145,-11.8965 -3.0302,-2.9489 -7.0568,-4.4334 -12.0999,-4.4334 -1.6268,0 -3.2947,0.1832 -4.9825,0.5287 -1.7081,0.366 -3.4571,0.9153 -5.2466,1.6268 l 0,11.266 z"
         style="fill:#2b2928;fill-opacity:1;fill-rule:nonzero;stroke:none"
         id="path4232" />
    </g>
  </g>
</svg>
